# xmcd
#
# Track frame offsets:
#	150
#	74732
#	89063
#	113135
#	144886
#	164965
#	195621
#	219112
#	238213
#	267433
#
# Disc length: 3909 seconds
#
# Revision: 1
# Processed by: cddbd v1.5.2PL0 Copyright (c) Steve Scherf et al.
# Submitted via: EZCDAudioConverter 7.0.6.1
#
DISCID=9e0f430a
DTITLE=Cavern Of Anti-Matter - Hormone Lemonade
DYEAR=2018
DGENRE=
TTITLE0=Malfunction
TTITLE1=Make Out Fade Out
TTITLE2=Phase Modulation Shuffle
TTITLE3=Solarised Sound
TTITLE4=Outerzone Jazs
TTITLE5=Automatic Morning
TTITLE6=Feed Me Magnetic Rain
TTITLE7=Motion Flow
TTITLE8=Remote Confection
TTITLE9=Phantom Melodies
EXTD=
EXTT0=
EXTT1=
EXTT2=
EXTT3=
EXTT4=
EXTT5=
EXTT6=
EXTT7=
EXTT8=
EXTT9=
PLAYORDER=
